<?xml version="1.0" encoding="iso-8859-1"?>
<!-- Generator: Adobe Illustrator 24.1.0, SVG Export Plug-In . SVG Version: 6.00 Build 0)  -->
<svg version="1.1" id="Layer_1" xmlns="http://www.w3.org/2000/svg" xmlns:xlink="http://www.w3.org/1999/xlink" x="0px" y="0px"
	 width="500px" height="500px" viewBox="0 0 500 500" enable-background="new 0 0 500 500" xml:space="preserve">
<path fill="#FFFFFF" d="M249.972,494.539c-155.14,0-244.117-88.977-244.117-244.117C5.856,95.283,94.832,6.306,249.972,6.306
	c155.141,0,244.119,88.977,244.119,244.116C494.091,405.563,405.113,494.539,249.972,494.539z M249.972,34.618
	c-139.164,0-215.804,76.641-215.804,215.804s76.641,215.804,215.804,215.804c139.165,0,215.806-76.641,215.806-215.804
	S389.137,34.618,249.972,34.618z M154.838,382.98l19.593-24.931h61.011V220.011H174.43l-19.593-24.935h65.778
	c0,0-34.607-3.28-34.607-41.386c0-33.844,28.327-57.883,64.171-57.883c11.446,0,22.172,2.832,31.881,8.419
	c9.71,5.585,17.539,13.278,23.268,22.866c5.366,8.991,8.247,18.811,8.575,29.216h-27.015c-0.456-9.314-4.105-17.519-10.865-24.417
	c-7.259-7.401-15.955-11.153-25.844-11.153c-21.021,0-36.758,13.514-36.758,34.445c0,29.158,25.677,39.894,44.499,39.894h87.187
	l-19.59,24.935h-61.01v138.038h61.011l19.588,24.931H154.838z"/>
<g>
</g>
<g>
</g>
<g>
</g>
<g>
</g>
<g>
</g>
<g>
</g>
</svg>
